/* XPM */
static char * geximon_16x16_xpm[] = {
"16 16 179 2",
"  	c None",
". 	c #B1BAC3",
"+ 	c #6D747E",
"@ 	c #3B414C",
"# 	c #292E39",
"$ 	c #00010D",
"% 	c #000005",
"& 	c #0E1420",
"* 	c #0C1421",
"= 	c #070F1B",
"- 	c #07101D",
"; 	c #000002",
"> 	c #00000C",
", 	c #323844",
"' 	c #393F49",
") 	c #6A717B",
"! 	c #A6AEB8",
"~ 	c #4D535D",
"{ 	c #646C76",
"] 	c #ABB0B7",
"^ 	c #D1D3D6",
"/ 	c #F2F6F9",
"( 	c #FFFFFF",
"_ 	c #FEFFFF",
": 	c #FCFFFF",
"< 	c #F9FDFF",
"[ 	c #F4F9FD",
"} 	c #CED6DC",
"| 	c #B9C1C8",
"1 	c #7D8790",
"2 	c #24303B",
"3 	c #40454F",
"4 	c #212530",
"5 	c #91A1AB",
"6 	c #BEC9D1",
"7 	c #F7F9F5",
"8 	c #F3F5F7",
"9 	c #EDF0EF",
"0 	c #E6E8EB",
"a 	c #E5EAEE",
"b 	c #E2E7EC",
"c 	c #DFE4E9",
"d 	c #DBE2E7",
"e 	c #D8DFE5",
"f 	c #DBE2E9",
"g 	c #5C6F7B",
"h 	c #59707E",
"i 	c #1E212C",
"j 	c #161A25",
"k 	c #D1D9DF",
"l 	c #758995",
"m 	c #AEB9C1",
"n 	c #EAEEF1",
"o 	c #E7EBEF",
"p 	c #E4E8EC",
"q 	c #DBE1E6",
"r 	c #A1A6AB",
"s 	c #6E7177",
"t 	c #AEB5BB",
"u 	c #D3DBE2",
"v 	c #71828D",
"w 	c #496572",
"x 	c #778D9C",
"y 	c #10141F",
"z 	c #151924",
"A 	c #EEF3F6",
"B 	c #8A9CA7",
"C 	c #688490",
"D 	c #B2BDC4",
"E 	c #DEE4E9",
"F 	c #DBE1E7",
"G 	c #CAD1D8",
"H 	c #2C2F30",
"I 	c #8B8A77",
"J 	c #656461",
"K 	c #444C52",
"L 	c #354F60",
"M 	c #748A97",
"N 	c #8B9EAC",
"O 	c #0B0F1A",
"P 	c #EDF2F6",
"Q 	c #CBD4DC",
"R 	c #677E8C",
"S 	c #465A65",
"T 	c #BAC3CD",
"U 	c #E3E8EF",
"V 	c #D8DEE7",
"W 	c #94959D",
"X 	c #2A2A2B",
"Y 	c #AFA6A3",
"Z 	c #6E6D64",
"` 	c #29363C",
" .	c #778C99",
"..	c #A9B9CA",
"+.	c #0A0D18",
"@.	c #ECF1F5",
"#.	c #D1D9E0",
"$.	c #A4B3BE",
"%.	c #031B26",
"&.	c #32525D",
"*.	c #25353F",
"=.	c #4E5F6A",
"-.	c #476D78",
";.	c #0D2029",
">.	c #484847",
",.	c #9A988E",
"'.	c #000000",
").	c #ABBAC3",
"!.	c #ACBAC7",
"~.	c #040712",
"{.	c #6B818C",
"].	c #8A98A1",
"^.	c #52636C",
"/.	c #4C4D4C",
"(.	c #2E2626",
"_.	c #294149",
":.	c #0A0F12",
"<.	c #BBB9AF",
"[.	c #675248",
"}.	c #D0D9DF",
"|.	c #B3C3D0",
"1.	c #030510",
"2.	c #EBF0F4",
"3.	c #96A3AC",
"4.	c #687984",
"5.	c #E1E5EB",
"6.	c #AFB1B6",
"7.	c #3C3E3C",
"8.	c #B5B1AB",
"9.	c #5A5957",
"0.	c #DCD5CC",
"a.	c #C8C2B7",
"b.	c #79756A",
"c.	c #2B2A24",
"d.	c #050E16",
"e.	c #8C97A3",
"f.	c #030813",
"g.	c #BAC2C9",
"h.	c #556975",
"i.	c #C2C6D0",
"j.	c #C0CAD4",
"k.	c #B5BFC8",
"l.	c #787E85",
"m.	c #434243",
"n.	c #AFAFAA",
"o.	c #79655B",
"p.	c #757167",
"q.	c #CEC8BA",
"r.	c #B3AEA4",
"s.	c #4F4E49",
"t.	c #424852",
"u.	c #35414D",
"v.	c #73828F",
"w.	c #A2B1BF",
"x.	c #A6B5C3",
"y.	c #A4B3C0",
"z.	c #99A9B7",
"A.	c #6D7B85",
"B.	c #3B4258",
"C.	c #4E555C",
"D.	c #717B87",
"E.	c #353C4D",
"F.	c #44423B",
"G.	c #CCC7B8",
"H.	c #C1BDB1",
"I.	c #9E998A",
"J.	c #3A404A",
"K.	c #010A16",
"L.	c #0B1420",
"M.	c #0F1823",
"N.	c #0A131D",
"O.	c #09101B",
"P.	c #08111B",
"Q.	c #060913",
"R.	c #0A0D14",
"S.	c #0B0906",
"T.	c #9A978D",
"U.	c #D8D2C5",
"V.	c #48463F",
"                                ",
"                                ",
". + @ # $ % & * = - ; > , ' ) ! ",
"~ { ] ^ / ( ( _ : < [ } | 1 2 3 ",
"4 5 6 7 8 9 0 a b c d e f g h i ",
"j k l m n o p q r s t u v w x y ",
"z A B C D E F G H I J K L M N O ",
"z P Q R S T U V W X Y Z `  ...+.",
"z @.#.$.%.&.*.=.-.;.>.,.'.).!.~.",
"z @.#.{.].^./.(._.:.<.[.'.}.|.1.",
"z 2.3.4.5.6.7.8.9.0.a.b.c.d.e.f.",
"4 g.h.i.j.k.l.m.n.o.'.p.q.r.s.'.",
"t.u.v.w.x.y.z.A.B.C.D.E.F.G.H.I.",
"! ~ J.$ $ K.L.M.N.O.P.Q.R.S.T.U.",
"                            '.V.",
"                                "};
