/* XPM */
static char * geximon_32x32_xpm[] = {
"32 32 424 2",
"  	c None",
". 	c #040405",
"+ 	c #000000",
"@ 	c #3E3E3E",
"# 	c #838383",
"$ 	c #6B6B6B",
"% 	c #0A0A0A",
"& 	c #030302",
"* 	c #090708",
"= 	c #737473",
"- 	c #777486",
"; 	c #ACB9AC",
"> 	c #FFFFFF",
", 	c #EEEDED",
"' 	c #191819",
") 	c #8B8B82",
"! 	c #EBEAED",
"~ 	c #F1F3E8",
"{ 	c #F6F2FF",
"] 	c #EAE6FA",
"^ 	c #F0EFF4",
"/ 	c #CBE8D2",
"( 	c #D3D0E2",
"_ 	c #473F59",
": 	c #7A7B7A",
"< 	c #F6F6FF",
"[ 	c #FBF9FB",
"} 	c #E3DDFB",
"| 	c #E6E1FB",
"1 	c #C9C3FB",
"2 	c #C8C4DB",
"3 	c #C6C2F5",
"4 	c #BDC2C6",
"5 	c #C5C1F5",
"6 	c #E2BEF5",
"7 	c #E4E4EC",
"8 	c #626169",
"9 	c #656565",
"0 	c #090909",
"a 	c #474747",
"b 	c #F0EEFC",
"c 	c #DDD8FB",
"d 	c #D8D2FB",
"e 	c #D4CEFB",
"f 	c #CECAE1",
"g 	c #C4BDF8",
"h 	c #C6C2D9",
"i 	c #E8E6D5",
"j 	c #E8E6F3",
"k 	c #ECEBF4",
"l 	c #FCFBF6",
"m 	c #F9FFFF",
"n 	c #D6DAB1",
"o 	c #9C9C9C",
"p 	c #54564E",
"q 	c #8B8985",
"r 	c #F7F8F7",
"s 	c #FFFBFC",
"t 	c #A2A3A2",
"u 	c #303030",
"v 	c #020201",
"w 	c #E3E1EA",
"x 	c #F0EEFB",
"y 	c #ECEBDF",
"z 	c #ECEBD9",
"A 	c #ECEBD5",
"B 	c #F4F4F4",
"C 	c #F5F5F7",
"D 	c #F0F3FA",
"E 	c #E1DFE8",
"F 	c #9996A1",
"G 	c #474253",
"H 	c #4F4F50",
"I 	c #A8A8A8",
"J 	c #D6DEF7",
"K 	c #8D8D8D",
"L 	c #EBEBEB",
"M 	c #070706",
"N 	c #F1F1EF",
"O 	c #F6F5FC",
"P 	c #D5D8E0",
"Q 	c #E8E1FF",
"R 	c #F6EEFF",
"S 	c #D2D4FF",
"T 	c #9086A7",
"U 	c #3A3845",
"V 	c #4C484E",
"W 	c #9997A1",
"X 	c #F7F7EB",
"Y 	c #97A0C2",
"Z 	c #F0E8F3",
"` 	c #E3E3E3",
" .	c #737373",
"..	c #D4D4D4",
"+.	c #121212",
"@.	c #BDBDBD",
"#.	c #FFFBFF",
"$.	c #DDD6F8",
"%.	c #ECE4FF",
"&.	c #64646F",
"*.	c #211F24",
"=.	c #77757D",
"-.	c #C0C194",
";.	c #FFFFF9",
">.	c #C7C9EF",
",.	c #D2D4EB",
"'.	c #8992B8",
").	c #0D15A3",
"!.	c #8F908A",
"~.	c #B6B6B6",
"{.	c #555555",
"].	c #636264",
"^.	c #D4D8F8",
"/.	c #868393",
"(.	c #6F6D74",
"_.	c #030300",
":.	c #CCC8C4",
"<.	c #7A7BBA",
"[.	c #B8BAE3",
"}.	c #6A6DB4",
"|.	c #6B6FB0",
"1.	c #161AAA",
"2.	c #7679B4",
"3.	c #757CB8",
"4.	c #DAD8E2",
"5.	c #77796D",
"6.	c #E5E4E7",
"7.	c #B4B4B4",
"8.	c #0E0E0E",
"9.	c #010101",
"0.	c #060607",
"a.	c #52524E",
"b.	c #969693",
"c.	c #CBCCA5",
"d.	c #999CB4",
"e.	c #6A6962",
"f.	c #5C60CA",
"g.	c #454BAC",
"h.	c #6E72B3",
"i.	c #8286B9",
"j.	c #BEC2E4",
"k.	c #FFFFFB",
"l.	c #ACACAC",
"m.	c #DBDBDB",
"n.	c #E2E2E2",
"o.	c #181818",
"p.	c #5B5B5B",
"q.	c #939393",
"r.	c #D8D8D6",
"s.	c #E5D5F7",
"t.	c #151DC2",
"u.	c #9B9CAB",
"v.	c #665E4E",
"w.	c #636253",
"x.	c #5A5D72",
"y.	c #CFCDDA",
"z.	c #BDC1E3",
"A.	c #DEE0EA",
"B.	c #DAD6D6",
"C.	c #858589",
"D.	c #EEEEED",
"E.	c #BFBFBF",
"F.	c #272727",
"G.	c #A5A5A5",
"H.	c #EAEAEA",
"I.	c #9F9F9F",
"J.	c #FFFFF2",
"K.	c #A2A5D3",
"L.	c #9DA4DC",
"M.	c #4C4FB3",
"N.	c #6D6B5B",
"O.	c #2B3144",
"P.	c #B8BCE2",
"Q.	c #EFF0EF",
"R.	c #F2F5EF",
"S.	c #8D8D8B",
"T.	c #B1B1B1",
"U.	c #BEBEBE",
"V.	c #BABABA",
"W.	c #D3D3D3",
"X.	c #CECECE",
"Y.	c #353535",
"Z.	c #141414",
"`.	c #BABAB5",
" +	c #9A9A9A",
".+	c #2D2D2B",
"++	c #7E7D7B",
"@+	c #25282A",
"#+	c #5258D0",
"$+	c #D0D5FF",
"%+	c #271D18",
"&+	c #AEAC85",
"*+	c #FFFAF2",
"=+	c #5A5954",
"-+	c #54565D",
";+	c #EDEEED",
">+	c #ECECEC",
",+	c #868687",
"'+	c #CBCBCB",
")+	c #7C7C7C",
"!+	c #040404",
"~+	c #FBFAFF",
"{+	c #BCB8AA",
"]+	c #BEBCBA",
"^+	c #B0ACA5",
"/+	c #181915",
"(+	c #AAA4A5",
"_+	c #E7EFF0",
":+	c #989A9A",
"<+	c #E0E0DF",
"[+	c #B3B3B3",
"}+	c #B8B8B8",
"|+	c #2F2F2F",
"1+	c #020202",
"2+	c #2E2E2E",
"3+	c #F2F2F2",
"4+	c #C9C9C9",
"5+	c #030205",
"6+	c #C2BEB6",
"7+	c #A8A59F",
"8+	c #ECE8DE",
"9+	c #ACA8A0",
"0+	c #100902",
"a+	c #070000",
"b+	c #6E3234",
"c+	c #8BA8A8",
"d+	c #F1F4F4",
"e+	c #D2D7D6",
"f+	c #AFAFAF",
"g+	c #C4C4C4",
"h+	c #595959",
"i+	c #0B0B0B",
"j+	c #111011",
"k+	c #C6C7C6",
"l+	c #F5F5F5",
"m+	c #E6E6E6",
"n+	c #919191",
"o+	c #E6E6DF",
"p+	c #A4A079",
"q+	c #5C5A54",
"r+	c #EAE7DD",
"s+	c #EEE8DF",
"t+	c #F5F3E9",
"u+	c #C9D9D3",
"v+	c #110200",
"w+	c #E5EBF0",
"x+	c #EDDFDF",
"y+	c #D2D2D2",
"z+	c #A3A3A3",
"A+	c #AEAEAE",
"B+	c #BCBCBC",
"C+	c #9B9B9B",
"D+	c #222222",
"E+	c #8B8B8B",
"F+	c #F1F1F1",
"G+	c #E2E2DF",
"H+	c #9B9BB8",
"I+	c #020100",
"J+	c #1C1A23",
"K+	c #6F6F8C",
"L+	c #262A2B",
"M+	c #040000",
"N+	c #A5A39B",
"O+	c #CFCAC1",
"P+	c #EEF7E4",
"Q+	c #C2C4B9",
"R+	c #000100",
"S+	c #CACFD1",
"T+	c #E5E4E6",
"U+	c #CACACA",
"V+	c #4D4D4D",
"W+	c #060606",
"X+	c #4B4B4B",
"Y+	c #FAFAFA",
"Z+	c #F9F9F9",
"`+	c #F0F0F0",
" @	c #D3D3D1",
".@	c #CACAC7",
"+@	c #CACCC4",
"@@	c #E0E7E7",
"#@	c #695455",
"$@	c #5D5751",
"%@	c #DDD9D1",
"&@	c #CDC8BF",
"*@	c #E2DED2",
"=@	c #DAD6C8",
"-@	c #0D0E0F",
";@	c #A6A6A6",
">@	c #C6C6C7",
",@	c #BBBBBB",
"'@	c #232223",
")@	c #1A1A1A",
"!@	c #D7D7D7",
"~@	c #FCFCFC",
"{@	c #F3F3F3",
"]@	c #DFDFE0",
"^@	c #DEDEDE",
"/@	c #DBDCDB",
"(@	c #DADADA",
"_@	c #C5D6BF",
":@	c #620014",
"<@	c #BFC0B6",
"[@	c #D5D2C8",
"}@	c #CFCBC1",
"|@	c #B0ACA7",
"1@	c #282521",
"2@	c #424141",
"3@	c #AEAFAE",
"4@	c #B0B0B0",
"5@	c #A0A0A0",
"6@	c #3B3B3B",
"7@	c #0C0C0C",
"8@	c #050505",
"9@	c #E9EAE9",
"0@	c #E7E7E7",
"a@	c #DFDFDF",
"b@	c #DDDDDD",
"c@	c #D7F4F0",
"d@	c #F7FFFF",
"e@	c #B5AAA8",
"f@	c #874849",
"g@	c #B5B3A7",
"h@	c #CBC79B",
"i@	c #FCFCF5",
"j@	c #7F7D77",
"k@	c #1C1712",
"l@	c #4C4C4A",
"m@	c #8A8A8A",
"n@	c #6A6A6A",
"o@	c #222122",
"p@	c #5C5C5C",
"q@	c #DFE0DF",
"r@	c #9C8B8B",
"s@	c #897676",
"t@	c #5F3A3B",
"u@	c #9F8E8E",
"v@	c #CCEDED",
"w@	c #4C4A49",
"x@	c #645D55",
"y@	c #E4E1DA",
"z@	c #C6B4A9",
"A@	c #CDC9C0",
"B@	c #E8E5DC",
"C@	c #89867F",
"D@	c #262521",
"E@	c #2C2C2C",
"F@	c #E2DBDB",
"G@	c #D1C6C6",
"H@	c #A89797",
"I@	c #977D7E",
"J@	c #885756",
"K@	c #897070",
"L@	c #6E3C40",
"M@	c #784548",
"N@	c #AFB0B1",
"O@	c #3B3F40",
"P@	c #14100D",
"Q@	c #ECEAE4",
"R@	c #DCD8D0",
"S@	c #B9B5AA",
"T@	c #DCD8CF",
"U@	c #D5D2C9",
"V@	c #85827C",
"W@	c #0F0F0F",
"X@	c #F6F6F6",
"Y@	c #C5BABA",
"Z@	c #AFA1A1",
"`@	c #AA8A8B",
" #	c #9F8586",
".#	c #987E7F",
"+#	c #9DB0B0",
"@#	c #C5B8B9",
"##	c #CAD4D0",
"$#	c #FCFFFF",
"%#	c #F9FDFD",
"&#	c #D9D8D8",
"*#	c #A5A4A4",
"=#	c #08080A",
"-#	c #4F4C48",
";#	c #F6F1EC",
">#	c #F8F6F0",
",#	c #CAC7BF",
"'#	c #211F19",
")#	c #A7A49B",
"!#	c #4A4946",
"~#	c #6B6C6B",
"{#	c #EBE4E4",
"]#	c #B09798",
"^#	c #A3898A",
"/#	c #B29499",
"(#	c #977979",
"_#	c #BB8D8E",
":#	c #E9E9E9",
"<#	c #727372",
"[#	c #0E0F0E",
"}#	c #12100B",
"|#	c #8B8883",
"1#	c #D6D1CB",
"2#	c #82807C",
"3#	c #E2E0DC",
"4#	c #52504D",
"5#	c #3F3F3F",
"6#	c #DBDFDF",
"7#	c #B2999A",
"8#	c #AF9697",
"9#	c #A98F90",
"0#	c #A08787",
"a#	c #E0E4E4",
"b#	c #CDCDCD",
"c#	c #030303",
"d#	c #524F4C",
"e#	c #95918A",
"f#	c #747167",
"g#	c #0F0E0C",
"h#	c #1F1E1F",
"i#	c #CDC4C4",
"j#	c #D4CBCB",
"k#	c #4F4F4F",
"l#	c #0D0D0D",
"m#	c #D1D1D1",
"n#	c #333333",
"o#	c #424242",
"p#	c #151515",
"q#	c #080808",
"                                                                ",
"                                                                ",
"                                                                ",
"                              . + @ # $ +                       ",
"                  % & * = - ; > , > > > +                       ",
"        + ' = # ) ! ~ { > > ] ^ ^ / ( > _   + + +               ",
"        : < > > [ } | | 1 2 3 4 5 6 7 > 8 + = 9 0               ",
"        a b c d e f g h i j k l m n o p q r s t u +             ",
"        v w ] x y z A B C D E F G H I J > > K L # +             ",
"        M N O P k Q R S T U V W X > > Y Z `  .> ..+.+           ",
"          @.#.$.%.&.*.=.-.> ;.>.> ,.'.).> !.~.` B {.+           ",
"          ].^./.(._.:.+ <.> [.}.|.1.2.3.4.5.6.` ` 7.8.          ",
"    9.+ 0.a.b.c.d.+ > > e.+ f.g.h.i.j.k.o l.` ` m.n.a +         ",
"  o.p.q.r.> > s.t.u.+ v.> w.x.y.z.,.A.B.C.D.@.E.m.m.q.+         ",
"  F.G.H.> > I.J.K.L.M.+ > N.O.P.L Q.R.S.T.` U.m.V.W.X.Y.9.      ",
"  Z.q.`. +.+++@+#+$+%+&+*+=+-+> ;+>+W.,+m.m.m.7.W.W.'+)++       ",
"  !+)+> ~++ > {++ + ]+> ^+/++ (+_+> :+'+<+m.[+W.W.7.'+}+|+1+    ",
"  + 2+3+> 4+5+> > > > 6+7+8+9+0+a+b+c+d+e+B.W.l.f+'+g+..h+i+    ",
"    j+k+l+m+n++ o+> p++ q+r+s+t+u+v++ w+x+y+z+'+'+A+g+B+C+D+    ",
"    !+E+> F+G+H+I++ J+K+L+M+N+> O+P+Q+R++ S+T+U+g+g+I B+E.V+0   ",
"    W+X+Y+Z+`+`  @y+.@+@@@#@+ $@> %@&@*@=@+ -@;@>@,@B+B+7.# '@  ",
"      )@!@~@Z+{@]@^@/@(@!@_@:@+ + <@> [@}@> |@1@2@3@4@[+B+5@6@7@",
"      8@C+> ~@3+`+9@0@a@b@c@d@e@f@+ + > > g@h@i@j@k@l@m@n@@ o@+ ",
"      8@p@> B q@Q.L L ` y+r@s@t@u@v@w@+ x@> y@z@A@B@C@D@+ W++   ",
"        E@b@B B >+F@G@H@I@J@K@L@M@V.A+N@O@P@Q@> R@S@T@U@V@      ",
"        W@l.X@Y@Z@`@ #I@.#+#@###$#%#&#*#{.=#+ -#;#>#,#'#)#!#    ",
"        1+~#{#]#^#/#(#_#'+W.`+:#C+<#[#+ + +     }#|#1#2#3#4#    ",
"        + 5#6#7#8#9#0#@#a#b## 2++ + + +           c#d#e#f#g#    ",
"          h#f+i#@#j#@.E+k#l#+ +                                 ",
"          +.)+m#C+$ Y.i+1++                                     ",
"          % n#o#p#0 q#                                          ",
"            % +                                                 "};
